<?xml version="1.0" encoding="utf-8"?>
<!-- Generator: Adobe Illustrator 19.2.1, SVG Export Plug-In . SVG Version: 6.00 Build 0)  -->
<svg xmlns="http://www.w3.org/2000/svg" version="1.1" width="600" height="216"><svg xmlns:xlink="http://www.w3.org/1999/xlink" version="1.0" id="Ebene_1" x="0" y="0" width="600" height="216" viewBox="0 0 462.1848755 166.3865509" style="enable-background:new 0 0 462.1848755 166.3865509;" xml:space="preserve">
<g>
	<circle style="fill:#EAECE8;" cx="90.1944275" cy="67.504303" r="8.5493097"/>
	<circle style="fill:#EAECE8;" cx="120.0650711" cy="43.3263321" r="7.755157"/>
	<g>
		<g>
			<g>
				<path style="fill:#CACCB9;" d="M176.2625122,65.5978851l-82.7126999,0.0000076      c-1.0166931,0-1.8406906,0.8239975-1.8406906,1.8406982c0,1.0166931,0.8239975,1.8406906,1.8406906,1.8406906h82.7126999      c1.0167084,0,1.8406982-0.8239975,1.8406982-1.8406982C178.1032104,66.4218903,177.2792206,65.5978851,176.2625122,65.5978851z"/>
			</g>
		</g>
		<g>
			<g>
				<path style="fill:#CACCB9;" d="M95.3034897,67.438591c0,2.8365402-2.3080597,5.1445999-5.1446075,5.1445999      c-2.8365402,0-5.1445999-2.3080597-5.1445999-5.1445999c0-2.8365479,2.3080597-5.1446075,5.1445999-5.1446075      C92.99543,62.2939835,95.3034897,64.6020432,95.3034897,67.438591z M91.6220932,67.438591      c0-0.8067474-0.6564636-1.4632111-1.4632111-1.4632111c-0.8067398,0-1.4632111,0.6564636-1.4632111,1.4632111      c0,0.8067398,0.6564713,1.4632034,1.4632111,1.4632034C90.9656296,68.9017944,91.6220932,68.2453308,91.6220932,67.438591z"/>
			</g>
		</g>
		<g>
			<g>
				<path style="fill:#CACCB9;" d="M177.970932,97.3954849h-63.9233246c-1.0167007,0-1.8406982,0.8239975-1.8406982,1.8406982      c0,1.0166931,0.8239975,1.8406982,1.8406982,1.8406982l63.9233246-0.0000076      c1.0166931,0,1.8406982-0.8239975,1.8406982-1.8406906C179.8116302,98.2194824,178.9876251,97.3954849,177.970932,97.3954849z"/>
			</g>
		</g>
		<g>
			<g>
				<path style="fill:#CACCB9;" d="M113.833046,99.2361832c0,2.8365402-2.3080597,5.1445999-5.1446075,5.1445999      c-2.8365402,0-5.1445999-2.3080597-5.1445999-5.1445999s2.3080597-5.1445999,5.1445999-5.1445999      C111.5249863,94.0915756,113.833046,96.3996429,113.833046,99.2361832z M110.1516495,99.2361832      c0-0.8067474-0.6564636-1.4632111-1.4632111-1.4632111c-0.8067398,0-1.4632034,0.6564636-1.4632034,1.4632111      c0,0.8067398,0.6564636,1.4632111,1.4632034,1.4632111C109.4951859,100.6993942,110.1516495,100.042923,110.1516495,99.2361832z      "/>
			</g>
		</g>
		<g>
			<path style="fill:#CACCB9;" d="M126.4422607,67.7627029h-3.6686325l0.0026932-7.7465706     c0,0,0.0497055-1.5938263-0.9041748-2.584877c-0.5768051-0.5996437-1.4818649-0.9037209-2.6905594-0.9037209H81.2914047     v-3.6686249h37.8901825c2.2673645,0,4.0752563,0.6959267,5.3721695,2.0680809     c1.9073105,2.0179214,1.9082031,4.7040062,1.888504,5.2324486V67.7627029z"/>
		</g>
		<g>
			<g>
				<path style="fill:#CACCB9;" d="M83.5647125,54.7372704c0,2.8365402-2.3080673,5.1445999-5.1446075,5.1445999      s-5.1446075-2.3080597-5.1446075-5.1445999c0-2.836544,2.3080673-5.1446037,5.1446075-5.1446037      S83.5647125,51.9007263,83.5647125,54.7372704z M79.883316,54.7372704c0-0.8067436-0.6564713-1.4632111-1.4632111-1.4632111      s-1.4632111,0.6564674-1.4632111,1.4632111c0,0.8067398,0.6564713,1.4632072,1.4632111,1.4632072      S79.883316,55.5440102,79.883316,54.7372704z"/>
			</g>
		</g>
		<g>
			<path style="fill:#CACCB9;" d="M140.3123016,67.5996933h-3.6686249l0.0026855-19.0480156     c0,0,0.0497131-1.5938301-0.9041748-2.584877c-0.5767975-0.5996437-1.4818726-0.9037209-2.690567-0.9037209h-8.841507v-3.6686287     h8.841507c2.2673645,0,4.0752563,0.6959305,5.3721771,2.0680809c1.9073029,2.0179253,1.9082031,4.7049065,1.888504,5.2328987     V67.5996933z"/>
		</g>
		<g>
			<g>
				<path style="fill:#CACCB9;" d="M125.2189865,43.2728119c0,2.836544-2.3080673,5.1446037-5.1446075,5.1446037      s-5.1445999-2.3080597-5.1445999-5.1446037c0-2.8365402,2.3080597-5.1445999,5.1445999-5.1445999      S125.2189865,40.4362717,125.2189865,43.2728119z M121.53759,43.2728119c0-0.8067398-0.6564636-1.4632072-1.4632111-1.4632072      c-0.8067398,0-1.4632111,0.6564674-1.4632111,1.4632072c0,0.8067436,0.6564713,1.4632111,1.4632111,1.4632111      C120.8811264,44.7360229,121.53759,44.0795555,121.53759,43.2728119z"/>
			</g>
		</g>
		<g>
			<path style="fill:#CACCB9;" d="M123.7484055,113.5645447H90.3560181v-3.6686249h33.3923874     c1.2189941,0,2.1294403-0.3094482,2.7062454-0.9198456c0.9337234-0.987915,0.8898392-2.5544205,0.8889389-2.5696487     l-0.0026855-0.1030045v-7.6426697h3.6686325v7.6023712c0.0196991,0.5279922,0.0187988,3.215416-1.8889618,5.233345     C127.8232193,112.8686142,126.0157776,113.5645447,123.7484055,113.5645447z"/>
		</g>
		<g>
			<g>
				<path style="fill:#CACCB9;" d="M86.2200775,116.8303833c-2.8365402,0-5.1445999-2.3080597-5.1445999-5.1445999      s2.3080597-5.1445999,5.1445999-5.1445999c2.8365479,0,5.1446075,2.3080597,5.1446075,5.1445999      S89.0566254,116.8303833,86.2200775,116.8303833z M86.2200775,110.2225723      c-0.8067398,0-1.4632034,0.6564713-1.4632034,1.4632111s0.6564636,1.4632111,1.4632034,1.4632111      c0.8067474,0,1.4632111-0.6564713,1.4632111-1.4632111S87.026825,110.2225723,86.2200775,110.2225723z"/>
			</g>
		</g>
	</g>
	<circle style="fill:#CCCECC;" cx="154.8176422" cy="52.8850479" r="8.0333195"/>
	<circle style="fill:#EAECE8;" cx="380.3600769" cy="70.5275955" r="8.5493097"/>
	<circle style="fill:#EAECE8;" cx="358.4362793" cy="59.0352936" r="7.810956"/>
	<circle style="fill:#EAECE8;" cx="364.8875732" cy="83.2151566" r="7.810956"/>
	<circle style="fill:#CCCECC;" cx="303.2852173" cy="99.3527374" r="7.810956"/>
	<circle style="fill:#CCCECC;" cx="314.5625" cy="67.4698639" r="8.6841412"/>
	<g>
		<g>
			<path style="fill:#CACCB9;" d="M254.0848083,81.4241867h106.6485596c0.9169006,0,1.7666016,0.6266861,1.9136658,1.5317078     c0.187439,1.1533203-0.6975403,2.1496887-1.8155212,2.1496887H253.1992645     C251.3529358,83.481514,252.478302,81.4241867,254.0848083,81.4241867z"/>
		</g>
	</g>
	<g>
		<path style="fill:#CACCB9;" d="M364.7362366,78.0199203c2.8365479,0,5.1445923,2.3080673,5.1445923,5.1446075    s-2.3080444,5.1445999-5.1445923,5.1445999s-5.1445923-2.3080597-5.1445923-5.1445999    C359.5916443,80.32798,361.8996887,78.0199203,364.7362366,78.0199203z M364.7362366,84.627739    c0.8067322,0,1.4631958-0.6564713,1.4631958-1.4632111c0-0.8067474-0.6564636-1.4632111-1.4631958-1.4632111    s-1.4632263,0.6564636-1.4632263,1.4632111C363.2730103,83.9712677,363.9295044,84.627739,364.7362366,84.627739z"/>
	</g>
	<g>
		<path style="fill:#CACCB9;" d="M354.4781799,83.4882584h-3.6686096v-7.6023636    c-0.0197144-0.5284424-0.0187988-3.2154236,1.8880615-5.233345c1.2969055-1.3721542,3.1043396-2.0680771,5.3721619-2.0680771    h18.1164856v3.6686249h-18.1164856c-1.208252,0-2.1137695,0.3040771-2.6905518,0.9032745    c-0.9538879,0.9914932-0.9037476,2.5853195-0.902832,2.6014404L354.4781799,83.4882584z"/>
	</g>
	<g>
		<path style="fill:#CACCB9;" d="M341.4087219,83.3256989h-3.6686401V64.4214401    c-0.0196838-0.5284424-0.0187988-3.2154236,1.8880615-5.233345c1.2969055-1.3721542,3.1043701-2.0680809,5.3721619-2.0680809    h9.2817383v3.6686249h-9.2817383c-1.208252,0-2.113739,0.3040771-2.6905518,0.9032745    c-0.9538879,0.991497-0.903717,2.5853233-0.902832,2.6014442L341.4087219,83.3256989z"/>
	</g>
	<g>
		<path style="fill:#CACCB9;" d="M358.4362793,53.8906898c2.8365479,0,5.1446228,2.3080597,5.1446228,5.1446037    c0,2.8365402-2.308075,5.1445999-5.1446228,5.1445999s-5.1445923-2.3080597-5.1445923-5.1445999    C353.291687,56.1987495,355.5997314,53.8906898,358.4362793,53.8906898z M358.4362793,60.4985008    c0.8067627,0,1.4632263-0.6564636,1.4632263-1.4632072s-0.6564636-1.4632111-1.4632263-1.4632111    c-0.8067322,0-1.4631958,0.6564674-1.4631958,1.4632111S357.6295471,60.4985008,358.4362793,60.4985008z"/>
	</g>
	<g>
		<path style="fill:#CACCB9;" d="M380.3600769,65.3829956c2.8365173,0,5.1445923,2.3080597,5.1445923,5.1445999    s-2.308075,5.1445999-5.1445923,5.1445999c-2.8365479,0-5.1446228-2.3080597-5.1446228-5.1445999    S377.5235291,65.3829956,380.3600769,65.3829956z M380.3600769,71.9908066c0.8067322,0,1.4631958-0.6564713,1.4631958-1.4632111    s-0.6564636-1.4632111-1.4631958-1.4632111c-0.8067627,0-1.4632263,0.6564713-1.4632263,1.4632111    S379.5533142,71.9908066,380.3600769,71.9908066z"/>
	</g>
	<g>
		<path style="fill:#CACCB9;" d="M350.6667786,98.565361h-25.0471497c-2.2678223,0-4.0752563-0.6959229-5.3721619-2.0680771    c-1.9077759-2.0179214-1.9086609-4.7049026-1.8889465-5.2328949v-7.6028137h3.6686096l-0.0026855,7.7461166    c0,0-0.0492554,1.5942764,0.9046326,2.5853271c0.5767822,0.5996399,1.4822998,0.903717,2.6905518,0.903717h25.0471497V98.565361z"/>
	</g>
	<g>
		<path style="fill:#CACCB9;" d="M349.6581726,96.6869812c0-2.8365402,2.3080444-5.1446075,5.1445923-5.1446075    s5.1446228,2.3080673,5.1446228,5.1446075s-2.308075,5.1445999-5.1446228,5.1445999    S349.6581726,99.5235214,349.6581726,96.6869812z M353.3395691,96.6869812c0,0.8067398,0.6564636,1.4632111,1.4631958,1.4632111    c0.8067627,0,1.4632263-0.6564713,1.4632263-1.4632111c0-0.8067474-0.6564636-1.4632111-1.4632263-1.4632111    C353.9960327,95.2237701,353.3395691,95.8802338,353.3395691,96.6869812z"/>
	</g>
	<circle style="fill:#EAECE8;" cx="224.5822449" cy="83.1932755" r="54.0240936"/>
	<circle style="fill:#595857;" cx="224.5822449" cy="83.1932755" r="37.4353867"/>
	<circle style="fill:#CCCECC;" cx="224.5822449" cy="83.1932755" r="40.9750671"/>
	<circle style="fill:#CCCECC;" cx="224.5822449" cy="83.1932755" r="44.5267105"/>
	<g>
		<circle style="fill:#595857;" cx="224.6917572" cy="83.1615372" r="39.1400948"/>
	</g>
	<g>
		<path style="fill:#EAECE8;" d="M290.0870667,67.7624664h-4v-7.6005859    c-0.0195313-0.5527344-0.0126953-3.2900391,1.9335938-5.3491211c0.9140625-0.9667969,2.609375-2.1196289,5.4921875-2.1196289    h34.1435547v4h-34.1435547c-1.1708984,0-2.0410156,0.2919922-2.5849609,0.8676758    c-0.8720703,0.9223633-0.8447266,2.4316406-0.84375,2.4462891l0.0029297,0.1123047V67.7624664z"/>
	</g>
	<g>
		<path style="fill:#EAECE8;" d="M331.7918091,49.5926666c2.8365479,0,5.1445923,2.3080597,5.1445923,5.1446037    c0,2.8365402-2.3080444,5.1445999-5.1445923,5.1445999s-5.1446228-2.3080597-5.1446228-5.1445999    C326.6471863,51.9007263,328.9552612,49.5926666,331.7918091,49.5926666z M331.7918091,56.2004776    c0.8067322,0,1.4631958-0.6564674,1.4631958-1.4632072c0-0.8067436-0.6564636-1.4632111-1.4631958-1.4632111    c-0.8067627,0-1.4632263,0.6564674-1.4632263,1.4632111C330.3285828,55.5440102,330.9850464,56.2004776,331.7918091,56.2004776z"/>
	</g>
	<g>
		<path style="fill:#EAECE8;" d="M277.0177307,67.5998688h-4V48.6980133    c-0.0205078-0.5537109-0.0126953-3.2900391,1.9326172-5.3491211c0.9150391-0.9672852,2.609375-2.1201172,5.4931641-2.1201172    h8.8417969v4h-8.8417969c-1.1611328,0-2.0253906,0.2861328-2.5693359,0.8510742    c-0.9042969,0.9379883-0.859375,2.4658203-0.8583984,2.480957L277.0177307,67.5998688z"/>
	</g>
	<g>
		<path style="fill:#EAECE8;" d="M293.4210205,38.128212c2.8365173,0,5.1445923,2.3080597,5.1445923,5.1445999    c0,2.836544-2.308075,5.1446037-5.1445923,5.1446037c-2.8365479,0-5.1446228-2.3080597-5.1446228-5.1446037    C288.2763977,40.4362717,290.5844727,38.128212,293.4210205,38.128212z M293.4210205,44.7360229    c0.8067322,0,1.4631958-0.6564674,1.4631958-1.4632111c0-0.8067398-0.6564636-1.4632072-1.4631958-1.4632072    c-0.8067627,0-1.4632263,0.6564674-1.4632263,1.4632072C291.9577942,44.0795555,292.6142578,44.7360229,293.4210205,44.7360229z"/>
	</g>
	<g>
		<path style="fill:#EAECE8;" d="M319.646637,113.7302399h-24.4335938c-2.8828125,0-4.578125-1.152832-5.4921875-2.1196289    c-1.9462891-2.0595703-1.953125-4.7978516-1.9335938-5.3500977v-7.6000977h4l-0.0029297,7.7553711l0,0    c0,0-0.0439453,1.5263672,0.859375,2.4633789c0.5449219,0.5649414,1.4091797,0.8510742,2.5693359,0.8510742h24.4335938    V113.7302399z"/>
	</g>
	<g>
		<path style="fill:#009CCF;" d="M318.6377258,111.6857834c0-2.8365402,2.3080444-5.1445999,5.1445923-5.1445999    s5.1445923,2.3080597,5.1445923,5.1445999s-2.3080444,5.1445999-5.1445923,5.1445999    S318.6377258,114.5223236,318.6377258,111.6857834z M322.3191223,111.6857834    c0,0.8067398,0.6564636,1.4632111,1.4631958,1.4632111s1.4632263-0.6564713,1.4632263-1.4632111    s-0.6564941-1.4632111-1.4632263-1.4632111S322.3191223,110.8790436,322.3191223,111.6857834z"/>
	</g>
	<g>
		<path style="fill:#EAECE8;" d="M209.0830688,97.103981l13.6032257,0.0322723l0.0292969-12.0841522l-15.1094513-0.0358505    C207.7380524,89.1331787,208.224411,93.1801071,209.0830688,97.103981z"/>
		<path style="opacity:0.45;fill:#E8EAE6;" d="M231.8216248,49.3945999    c-1.7239227-0.3702202-3.4894562-0.5752335-5.2966156-0.6739807l-0.0407715,16.8205948l12.6343536,0.0299759    C237.4846039,59.8146286,235.0226593,54.3810539,231.8216248,49.3945999z"/>
		<path style="opacity:0.45;fill:#E8EAE6;" d="M217.333847,116.9977951    c1.7239532,0.3641739,3.5013885,0.5694046,5.3026886,0.6681442l0.0407562-16.814743l-12.6403961-0.0299911    C211.6828003,106.5717468,214.1445618,112.0053253,217.333847,116.9977951z"/>
		<path style="fill:#EAECE8;" d="M209.8390961,65.5017242l12.9237976,0.0306625l0.0407715-16.8205986    c-2.0912476,0.1072617-4.1296539,0.3859978-6.0978241,0.8477745    C213.6872711,54.4959297,211.3707275,59.8531837,209.8390961,65.5017242z"/>
		<path style="fill:#009CCF;" d="M207.5739746,81.2953491l15.1506348,0.0359497l0.0292969-12.0898209l-13.8333435-0.0328217    C208.1016235,73.1342163,207.6667023,77.1791458,207.5739746,81.2953491z"/>
		<path style="fill:#EAECE8;" d="M205.1519775,69.1997147l-12.1500854-0.0288239    c-1.6688843,3.7287674-2.6650238,7.8016434-2.905899,12.0829926l13.7685394,0.0326691    C203.9513855,77.182045,204.3804321,73.1431503,205.1519775,69.1997147z"/>
		<path style="fill:#CCCECC;" d="M203.8968964,85.0074539l-13.7980194-0.0327377    c0.2082367,4.2765579,1.1906738,8.3482742,2.8354034,12.09095l12.356781,0.0293198    C204.4677429,93.1653366,204.016922,89.1184998,203.8968964,85.0074539z"/>
		<path style="fill:#EAECE8;" d="M194.8684998,100.7852249c3.9179535,6.5886993,9.942215,11.7707672,17.1649933,14.5875473    c-2.5227814-4.5773392-4.4602203-9.4663315-5.8358307-14.5606689L194.8684998,100.7852249z"/>
		<path style="fill:#CCCECC;" d="M211.4922028,51.2068787c-6.9355164,2.8479843-12.7185516,7.8958702-16.5380859,14.2595367    l11.0574646,0.0262299C207.2935333,60.5051155,209.1127472,55.7075958,211.4922028,51.2068787z"/>
		<path style="fill:#CCCECC;" d="M245.2646332,81.3847733l13.8038788,0.0327454    c-0.2201233-4.2824478-1.2025757-8.3541641-2.8414307-12.0966339l-12.3626556-0.0293274    C244.6877594,73.2210159,245.1385803,77.2680435,245.2646332,81.3847733z"/>
		<path style="fill:#EAECE8;" d="M237.1220093,51.0137711c2.5227814,4.5773354,4.4602356,9.4604721,5.8358154,14.5665283    l11.3291473,0.0268707C250.3807526,59.012455,244.3447876,53.8303566,237.1220093,51.0137711z"/>
		<path style="fill:#CCCECC;" d="M240.0724335,69.2825623l-13.5971832-0.0322571l-0.0292969,12.0898209l15.1031952,0.0358276    C241.41745,77.2531738,240.9369507,73.2064514,240.0724335,69.2825623z"/>
		<path style="fill:#EAECE8;" d="M240.0724335,69.2825623l-13.5971832-0.0322571l-0.0292969,12.0898209l15.1031952,0.0358276    C241.41745,77.2531738,240.9369507,73.2064514,240.0724335,69.2825623z"/>
		<path style="fill:#EAECE8;" d="M244.0035248,97.186821l12.1559601,0.0288391    c1.6629944-3.7229233,2.6591492-7.8018417,2.9000244-12.0773392l-13.7685547-0.0326614    C245.210144,89.2103653,244.7750702,93.2432022,244.0035248,97.186821z"/>
		<path style="fill:#CCCECC;" d="M241.5815125,85.0968552l-15.1445923-0.0359268l-0.0292816,12.0841522l13.827301,0.0328064    C241.0538788,93.2521362,241.5007019,89.2074203,241.5815125,85.0968552z"/>
		<path style="fill:#009CCF;" d="M241.5815125,85.0968552l-15.1445923-0.0359268l-0.0292816,12.0841522l13.827301,0.0328064    C241.0538788,93.2521362,241.5007019,89.2074203,241.5815125,85.0968552z"/>
		<path style="fill:#CCCECC;" d="M237.6752014,115.1795044c6.9236145-2.8480148,12.7066498-7.8959045,16.5261688-14.2535172    l-11.0574646-0.0262375C241.861969,105.881424,240.0427551,110.6789474,237.6752014,115.1795044z"/>
		<path style="fill:#CCCECC;" d="M226.3986359,100.8600235l-0.0407562,16.814743    c2.0852051-0.1072769,4.1235962-0.3860092,6.097641-0.8477783c3.0244293-4.9422073,5.317337-10.2938461,6.8669128-15.9363022    L226.3986359,100.8600235z"/>
		<path style="fill:#EAECE8;" d="M226.3986359,100.8600235l-0.0407562,16.814743    c2.0852051-0.1072769,4.1235962-0.3860092,6.097641-0.8477783c3.0244293-4.9422073,5.317337-10.2938461,6.8669128-15.9363022    L226.3986359,100.8600235z"/>
	</g>
	<g>
		<g>
			<path style="fill:#CCCECC;" d="M264.672699,65.5978851l46.3735046,0.0000076     c1.0166931,0,1.8406982,0.8239975,1.8406982,1.8406982c0,1.0166931-0.8240051,1.8406906-1.8406982,1.8406906H264.672699     c-1.0166931,0-1.8406982-0.8239975-1.8406982-1.8406982C262.8320007,66.4218903,263.6560059,65.5978851,264.672699,65.5978851z"/>
		</g>
	</g>
	<g>
		<path style="fill:#009CCF;" d="M314.4371338,62.2939835c2.8365479,0,5.1445923,2.3080597,5.1445923,5.1446075    c0,2.8365402-2.3080444,5.1445999-5.1445923,5.1445999s-5.1446228-2.3080597-5.1446228-5.1445999    C309.292511,64.6020432,311.6005859,62.2939835,314.4371338,62.2939835z M314.4371338,68.9017944    c0.8067322,0,1.4631958-0.6564636,1.4631958-1.4632034c0-0.8067474-0.6564636-1.4632111-1.4631958-1.4632111    c-0.8067627,0-1.4632263,0.6564636-1.4632263,1.4632111C312.9739075,68.2453308,313.6303711,68.9017944,314.4371338,68.9017944z"/>
	</g>
	<g>
		<g>
			<path style="fill:#CCCECC;" d="M264.0175171,97.3954849h34.2724915c1.0166931,0,1.8406982,0.8239975,1.8406982,1.8406982     c0,1.0166931-0.8240051,1.8406982-1.8406982,1.8406982l-34.2724915-0.0000076     c-1.0166931,0-1.8406982-0.8239975-1.8406982-1.8406906C262.1768188,98.2194824,263.000824,97.3954849,264.0175171,97.3954849z"/>
		</g>
	</g>
	<g>
		<path style="fill:#009CCF;" d="M303.1656494,94.0915833c2.8365479,0,5.1446228,2.3080597,5.1446228,5.1445999    s-2.308075,5.1445999-5.1446228,5.1445999c-2.8365173,0-5.1445923-2.3080597-5.1445923-5.1445999    S300.3291321,94.0915756,303.1656494,94.0915833z M303.1656494,100.6993942c0.8067627,0,1.4632263-0.6564713,1.4632263-1.4632111    s-0.6564636-1.4632111-1.4632263-1.4632111c-0.8067322,0-1.4631958,0.6564636-1.4631958,1.4632111    C301.7024536,100.042923,302.3589172,100.6993942,303.1656494,100.6993942z"/>
	</g>
	<g>
		<path style="fill:#CCCECC;" d="M168.0572815,83.2976227h-4l0.0029297-25.1816406l0,0c0,0,0.0439453-1.5258789-0.859375-2.4628906    c-0.5444336-0.5649414-1.4091797-0.8510742-2.5698242-0.8510742h-1.331543v-4h1.331543    c2.8833008,0,4.578125,1.152832,5.4921875,2.1201172c1.9467773,2.059082,1.9541016,4.7963867,1.934082,5.3486328V83.2976227z"/>
	</g>
	<g>
		<path style="fill:#009CCF;" d="M159.9012604,53.0121918c0,2.8365402-2.3080597,5.1445999-5.1445923,5.1445999    c-2.8365479,0-5.1446075-2.3080597-5.1446075-5.1445999c0-2.836544,2.3080597-5.1446037,5.1446075-5.1446037    C157.5932007,47.867588,159.9012604,50.1756477,159.9012604,53.0121918z M156.2198792,53.0121918    c0-0.8067436-0.6564789-1.4632111-1.4632111-1.4632111c-0.8067474,0-1.4632111,0.6564674-1.4632111,1.4632111    c0,0.8067398,0.6564636,1.4632072,1.4632111,1.4632072C155.5634003,54.475399,156.2198792,53.8189316,156.2198792,53.0121918z"/>
	</g>
	<g>
		<path style="fill:#EAECE8;" d="M151.139801,115.4875641c-0.081543,0-0.1479492-0.0014648-0.1972656-0.003418h-4.4511719v-4    l4.6064453,0.0029297l0,0c0.0107422,0.0029297,1.5288086,0.0419922,2.4633789-0.8598633    c0.5649414-0.5444336,0.8510742-1.4086914,0.8510742-2.5693359V83.010025h4v25.0478516    c0,2.8833008-1.152832,4.578125-2.1201172,5.4921875C154.4161682,115.3235016,151.9767151,115.4875641,151.139801,115.4875641z"/>
	</g>
	<g>
		<path style="fill:#009CCF;" d="M143.4266815,118.5751953c-2.8365479,0-5.1446075-2.3080597-5.1446075-5.1445999    s2.3080597-5.1445999,5.1446075-5.1445999c2.8365326,0,5.1445923,2.3080597,5.1445923,5.1445999    S146.2632141,118.5751953,143.4266815,118.5751953z M143.4266815,111.9673843    c-0.8067474,0-1.4632111,0.6564713-1.4632111,1.4632111s0.6564636,1.4632111,1.4632111,1.4632111    c0.8067322,0,1.4632111-0.6564713,1.4632111-1.4632111S144.2334137,111.9673843,143.4266815,111.9673843z"/>
	</g>
	<circle style="fill:#CCCECC;" cx="127.5682144" cy="83.2056503" r="7.810956"/>
	<g>
		<g>
			<path style="fill:#CCCECC;" d="M183.5922852,81.2957458l-52.6943817,0.0000076     c-1.0166931,0-1.8406982,0.8239975-1.8406982,1.8406906c0,1.0167007,0.8240051,1.8406982,1.8406982,1.8406982h52.6943817     c1.0167084,0,1.8406982-0.8239975,1.8406982-1.8406982C185.4329834,82.119751,184.6089935,81.2957458,183.5922852,81.2957458z"/>
		</g>
	</g>
	<g>
		<path style="fill:#009CCF;" d="M132.6435547,83.1364441c0,2.8365479-2.3080597,5.1446075-5.1445999,5.1446075    c-2.8365479,0-5.1446075-2.3080597-5.1446075-5.1445999c0-2.8365479,2.3080597-5.1446075,5.1446075-5.1446075    C130.335495,77.9918442,132.6435547,80.2999039,132.6435547,83.1364441z M128.9621582,83.1364441    c0-0.8067398-0.6564636-1.4632034-1.4632034-1.4632034c-0.8067474,0-1.4632111,0.6564636-1.4632111,1.4632034    c0,0.8067474,0.6564636,1.4632111,1.4632111,1.4632111C128.3056946,84.5996552,128.9621582,83.9431915,128.9621582,83.1364441z"/>
	</g>
</g>
</svg></svg>
